HIERARCHY
ROOT Hips
{
	OFFSET	0.000000	0.000000	0.000000
	CHANNELS 6 Xposition Yposition Zposition Zrotation Xrotation Yrotation
	JOINT LeftHip
	{
		OFFSET	4.740440	-3.195970	-0.322709
		CHANNELS 3 Zrotation Xrotation Yrotation
		JOINT LeftKnee
		{
			OFFSET	-1.605680	-15.592300	1.005510
			CHANNELS 3 Zrotation Xrotation Yrotation
			JOINT LeftAnkle
			{
				OFFSET	-0.632401	-16.421000	-1.413730
				CHANNELS 3 Zrotation Xrotation Yrotation
				End Site
				{
					OFFSET	0.008423	-2.933000	-1.776750
				}
			}
		}
	}
	JOINT RightHip
	{
		OFFSET	-4.740440	-3.195970	-0.322709
		CHANNELS 3 Zrotation Xrotation Yrotation
		JOINT RightKnee
		{
			OFFSET	1.605680	-15.592300	1.005510
			CHANNELS 3 Zrotation Xrotation Yrotation
			JOINT RightAnkle
			{
				OFFSET	0.632401	-16.421000	-1.413730
				CHANNELS 3 Zrotation Xrotation Yrotation
				End Site
				{
					OFFSET	-0.008423	-2.933000	-1.776750
				}
			}
		}
	}
	JOINT Chest
	{
		OFFSET	0.000000	3.468200	0.078401
		CHANNELS 3 Zrotation Xrotation Yrotation
		JOINT LeftCollar
		{
			OFFSET	3.857650	15.070700	-0.011583
			CHANNELS 3 Zrotation Xrotation Yrotation
			JOINT LeftShoulder
			{
				OFFSET	3.979720	-1.940530	-0.165223
				CHANNELS 3 Zrotation Xrotation Yrotation
				JOINT LeftElbow
				{
					OFFSET	0.615844	-10.986600	-0.673886
					CHANNELS 3 Zrotation Xrotation Yrotation
					JOINT LeftWrist
					{
						OFFSET	0.826843	-10.854500	1.034220
						CHANNELS 3 Zrotation Xrotation Yrotation
						End Site
						{
							OFFSET	-1.679080	-8.456540	0.936217
						}
					}
				}
			}
		}
		JOINT RightCollar
		{
			OFFSET	-3.857650	15.070700	-0.011583
			CHANNELS 3 Zrotation Xrotation Yrotation
			JOINT RightShoulder
			{
				OFFSET	-3.979720	-1.940530	-0.165223
				CHANNELS 3 Zrotation Xrotation Yrotation
				JOINT RightElbow
				{
					OFFSET	-0.615845	-10.986600	-0.673886
					CHANNELS 3 Zrotation Xrotation Yrotation
					JOINT RightWrist
					{
						OFFSET	-0.826843	-10.854500	1.034220
						CHANNELS 3 Zrotation Xrotation Yrotation
						End Site
						{
							OFFSET	1.679080	-8.456540	0.936217
						}
					}
				}
			}
		}
		JOINT Neck
		{
			OFFSET	0.000000	15.101400	0.055730
			CHANNELS 3 Zrotation Xrotation Yrotation
			JOINT Head
			{
				OFFSET	0.000000	4.185120	1.488260
				CHANNELS 3 Zrotation Xrotation Yrotation
				End Site
				{
					OFFSET	0.000000	7.773420	-0.106016
				}
			}
		}
	}
}
MOTION
Frames:     8
Frame Time: 0.016667
-0.984234	37.655399	-1.304491	4.220726	-11.237416	-11.064140	-0.494643	3.925405	1.553179	-3.148086	11.458431	6.536007	-2.155681	-4.760397	2.659660	-21.424898	-0.592139	-2.606505	-0.695529	12.650241	1.419016	14.325017	-2.356985	6.541164	-5.107744	6.776404	1.119576	-2.347218	3.222912	-0.578413	3.324126	-1.547956	3.468362	-1.231155	-16.289129	-4.039794	10.353050	5.550231	-22.242374	-0.126452	0.941225	0.843591	-4.708481	-3.980589	0.357485	-2.359092	-7.644856	10.595944	-15.221992	-3.550210	13.688745	-0.623604	12.073114	-6.313630	2.542397	3.304752	-8.190702	
-0.964300	37.639668	-1.329913	4.036571	-11.183778	-11.139206	-0.204241	3.647120	1.826445	-3.233059	12.023016	6.318743	-2.155915	-5.050308	2.642165	-21.240665	-0.686092	-2.552769	-0.694341	12.646111	1.344584	14.338007	-2.278792	6.571329	-5.048900	6.888183	1.144412	-2.234516	3.201644	-0.635220	3.607880	-1.473763	3.426421	-1.672097	-17.099829	-4.148396	10.169081	5.587430	-22.150490	-0.093617	0.965913	0.759650	-4.738880	-3.989708	0.325742	-2.178603	-8.128049	10.266417	-15.352811	-3.570053	13.158703	-0.522741	11.953935	-6.360265	2.626957	3.142419	-8.006474	
-0.908652	37.592434	-1.380798	3.449598	-11.026978	-11.519438	0.648942	2.949450	2.736142	-3.556523	13.368298	5.861224	-2.028156	-5.703052	2.490261	-20.706768	-0.980296	-2.371781	-0.611894	12.644830	1.181058	14.330719	-2.066711	6.723367	-4.895962	7.340223	1.179253	-1.876981	3.079009	-0.653492	3.942027	-1.650407	3.631897	-2.597843	-19.471170	-4.884919	9.783046	5.576034	-21.580372	0.021377	1.023914	0.702945	-5.049273	-4.067316	0.289274	-1.415525	-10.024938	9.453712	-15.577790	-3.614143	11.595593	-0.199148	11.385830	-6.373425	2.848352	2.616383	-7.391264	
-0.850128	37.560989	-1.433853	3.242260	-11.056272	-11.682189	0.923818	2.809277	3.062950	-3.668046	13.767313	5.733730	-1.972243	-5.878885	2.429923	-20.645081	-1.159796	-2.318470	-0.502303	12.789994	1.139239	14.340532	-1.975977	6.828514	-4.860627	7.599264	1.183419	-1.763586	3.011603	-0.616945	4.286444	-1.551019	3.706155	-3.193641	-20.522217	-5.166354	9.777871	5.560108	-21.317032	0.049445	1.026595	0.720160	-5.200965	-4.081145	0.300993	-1.087909	-10.821513	9.257806	-15.589272	-3.658878	11.166016	-0.096063	11.164079	-6.343179	2.926711	2.422658	-7.174249	
-0.774432	37.497528	-1.521809	2.630478	-11.272885	-12.167814	1.663765	2.622783	3.910050	-3.864076	14.850727	5.386587	-1.906515	-6.394554	2.316106	-20.322220	-1.235833	-2.010848	-0.273017	12.868974	0.554167	14.608714	-1.301151	7.446677	-4.805660	8.642608	1.148648	-1.457702	2.692628	-0.485066	4.704668	-1.742402	3.996619	-4.540067	-23.523485	-6.211982	9.948688	5.507957	-20.261185	0.116753	1.091490	0.872078	-5.804396	-4.456945	0.278408	0.110354	-13.476918	9.129383	-15.640710	-4.005032	9.952220	0.271048	10.566585	-6.137767	3.121396	1.616494	-6.590491	
-0.729780	37.470348	-1.563559	2.418792	-11.393842	-12.298848	1.897351	2.600132	4.051734	-3.963305	15.195124	5.362926	-1.859694	-6.548890	2.302948	-20.299149	-1.218096	-2.022027	-0.126572	12.892890	0.356666	14.735867	-0.975819	7.761339	-5.018276	9.343846	0.946994	-1.143697	2.287587	-0.254768	5.099749	-1.657360	3.996835	-5.266516	-24.768951	-6.548895	10.028040	5.497346	-19.843351	0.322033	0.801595	1.091645	-6.015878	-4.626585	0.293841	0.556304	-14.483158	9.311084	-15.623939	-4.172597	9.578618	0.637612	10.110743	-5.899329	3.130475	1.293793	-6.356803	
-0.598371	37.386566	-1.733392	1.697524	-11.666233	-12.836227	2.545003	2.317252	4.097077	-4.103017	16.348099	5.696489	-1.848822	-7.013571	2.363209	-20.267193	-1.292939	-2.344554	0.609517	12.859349	0.138412	14.870553	0.141682	8.606399	-4.850453	10.296107	1.041897	-1.010377	2.110927	-0.327717	5.746305	-1.767931	4.294652	-7.097006	-28.487873	-8.135652	10.318206	5.360673	-18.782055	0.243316	0.889933	1.007545	-6.840280	-5.226847	0.425011	2.048093	-17.718630	10.351603	-15.395888	-4.795223	8.706308	0.937538	9.507036	-5.727992	3.325003	0.506427	-5.747923	
-0.464015	37.328136	-1.811970	1.441087	-11.693354	-13.083297	2.749337	2.119179	4.129731	-4.165126	16.761255	5.868129	-1.805714	-7.157589	2.390942	-20.528572	-1.526787	-3.022865	1.030037	13.007273	0.656551	14.983293	0.469517	8.902558	-4.849068	10.650064	1.074939	-0.894836	1.951958	-0.308821	6.047017	-1.754142	4.377687	-7.868607	-29.876764	-8.730216	10.422005	5.228075	-18.507235	0.237778	0.774291	1.021394	-7.091086	-5.462599	0.504775	2.628478	-18.868105	10.843666	-15.353354	-4.972970	8.439078	1.103095	9.138360	-5.729867	3.398353	0.207704	-5.377772	
